<?xml version="1.0" encoding="UTF-8"?>
<!DOCTYPE svg PUBLIC "-//W3C//DTD SVG 1.1//EN" "http://www.w3.org/Graphics/SVG/1.1/DTD/svg11.dtd">
<svg xmlns="http://www.w3.org/2000/svg" version="1.1" width="553px" height="626px" style="shape-rendering:geometricPrecision; text-rendering:geometricPrecision; image-rendering:optimizeQuality; fill-rule:evenodd; clip-rule:evenodd" xmlns:xlink="http://www.w3.org/1999/xlink">
<g><path style="opacity:1" fill="#fefefe" d="M -0.5,-0.5 C 183.833,-0.5 368.167,-0.5 552.5,-0.5C 552.5,208.167 552.5,416.833 552.5,625.5C 368.167,625.5 183.833,625.5 -0.5,625.5C -0.5,416.833 -0.5,208.167 -0.5,-0.5 Z"/></g>
<g><path style="opacity:1" fill="#101010" d="M 321.5,92.5 C 322.139,93.0968 322.472,93.9302 322.5,95C 319.493,110.541 316.327,126.041 313,141.5C 311,144.167 309,144.167 307,141.5C 306.333,138.5 306.333,135.5 307,132.5C 311.543,119.035 316.377,105.701 321.5,92.5 Z"/></g>
<g><path style="opacity:1" fill="#101010" d="M 223.5,98.5 C 224.376,98.3691 225.043,98.7025 225.5,99.5C 232.364,113.229 239.198,126.896 246,140.5C 246.769,145.478 244.936,146.645 240.5,144C 233.01,129.519 227.343,114.352 223.5,98.5 Z"/></g>
<g><path style="opacity:1" fill="#111111" d="M 395.5,120.5 C 396.376,120.369 397.043,120.702 397.5,121.5C 389.304,133.889 382.137,146.889 376,160.5C 374.685,163.406 372.518,164.573 369.5,164C 368.028,159.966 368.528,156.133 371,152.5C 378.233,141.103 386.399,130.436 395.5,120.5 Z"/></g>
<g><path style="opacity:1" fill="#0f0f0f" d="M 253.5,378.5 C 224.23,371.623 199.73,356.956 180,334.5C 158.804,301.44 155.804,266.773 171,230.5C 185.234,195.932 210.067,172.765 245.5,161C 279.916,152.268 312.583,156.601 343.5,174C 371.14,195.767 386.974,224.267 391,259.5C 392.225,279.15 389.225,298.15 382,316.5C 372.906,341.372 359.74,363.705 342.5,383.5C 365.644,391.892 369.977,406.225 355.5,426.5C 369.541,444.873 368.541,462.373 352.5,479C 354.705,483.976 355.538,489.143 355,494.5C 352.808,501.217 349.808,507.551 346,513.5C 345.333,520.833 345.333,528.167 346,535.5C 347.354,538.505 348.354,541.505 349,544.5C 339.62,534.916 336.62,523.582 340,510.5C 342.667,505.833 345.333,501.167 348,496.5C 348.767,492.442 348.6,488.442 347.5,484.5C 347,484.167 346.5,483.833 346,483.5C 331.329,492.512 316.162,493.678 300.5,487C 290.522,474.593 293.522,466.927 309.5,464C 318.989,462.896 328.323,463.562 337.5,466C 340.503,467.166 343.17,468.833 345.5,471C 353.454,468.35 357.787,462.683 358.5,454C 357.926,445.429 354.926,437.929 349.5,431.5C 332.023,442.27 313.023,447.437 292.5,447C 288.714,445.607 285.048,443.941 281.5,442C 278.399,438.498 277.899,434.665 280,430.5C 282.205,427.96 284.705,425.793 287.5,424C 303.508,417.164 320.174,414.497 337.5,416C 342.305,416.767 346.639,418.6 350.5,421.5C 357.408,415.889 359.241,408.889 356,400.5C 350.246,394.686 343.246,391.353 335,390.5C 316.848,404.777 296.182,412.777 273,414.5C 265.536,415.402 259.869,412.735 256,406.5C 254.348,401.154 255.848,396.987 260.5,394C 271.286,387.441 282.953,383.441 295.5,382C 308.165,382.066 320.832,382.066 333.5,382C 340.789,375.717 346.956,368.551 352,360.5C 362.934,340.302 371.934,319.302 379,297.5C 387.368,254.126 375.868,216.959 344.5,186C 311.976,163.497 276.976,158.831 239.5,172C 200.072,189.97 176.906,220.47 170,263.5C 167.256,308.323 185.089,342.157 223.5,365C 233.32,370.205 243.32,374.705 253.5,378.5 Z"/></g>
<g><path style="opacity:1" fill="#111111" d="M 140.5,154.5 C 156.421,158.142 172.087,163.475 187.5,170.5C 188.631,172.074 188.798,173.741 188,175.5C 187.107,176.081 186.107,176.415 185,176.5C 182.46,175.815 179.96,174.981 177.5,174C 165.113,167.475 152.78,160.975 140.5,154.5 Z"/></g>
<g><path style="opacity:1" fill="#0d0d0d" d="M 433.5,197.5 C 436.85,197.335 440.183,197.502 443.5,198C 433.5,204.667 423.5,211.333 413.5,218C 410.535,220.33 407.368,220.83 404,219.5C 402.74,214.186 404.574,210.353 409.5,208C 417.263,203.61 425.263,200.11 433.5,197.5 Z"/></g>
<g><path style="opacity:1" fill="#101010" d="M 91.5,228.5 C 91.9169,227.876 92.5836,227.543 93.5,227.5C 111.611,231.556 129.944,233.722 148.5,234C 145.242,238.295 140.909,240.462 135.5,240.5C 120.31,238.324 105.644,234.324 91.5,228.5 Z"/></g>
<g><path style="opacity:1" fill="#131313" d="M 314.5,238.5 C 319.447,237.628 323.613,238.961 327,242.5C 327.667,244.5 327.667,246.5 327,248.5C 320.693,258.914 311.86,266.414 300.5,271C 295.303,271.867 290.303,271.2 285.5,269C 301.905,267.936 314.238,260.269 322.5,246C 318.069,243.658 314.235,244.492 311,248.5C 309.275,251.674 307.942,255.007 307,258.5C 305.604,260.527 303.938,260.86 302,259.5C 302.061,250.043 306.228,243.043 314.5,238.5 Z"/></g>
<g><path style="opacity:1" fill="#171717" d="M 268.5,277.5 C 276.545,269.245 281.545,259.411 283.5,248C 282.819,240.975 279.486,239.642 273.5,244C 268.094,248.328 268.26,252.495 274,256.5C 274.798,258.259 274.631,259.926 273.5,261.5C 262.538,253.481 262.872,245.981 274.5,239C 278.572,238.044 282.405,238.544 286,240.5C 287.853,245.898 287.52,251.232 285,256.5C 281.859,265.495 276.359,272.495 268.5,277.5 Z"/></g>
<g><path style="opacity:1" fill="#111111" d="M 282.5,360.5 C 282.672,361.492 282.338,362.158 281.5,362.5C 277.518,345.383 273.018,328.383 268,311.5C 263.321,292.963 254.154,277.13 240.5,264C 236.782,261.702 232.782,261.035 228.5,262C 225.308,267.501 226.308,272.167 231.5,276C 236.684,278.027 241.684,280.194 246.5,282.5C 245.829,283.946 244.662,284.612 243,284.5C 237.387,283.945 232.221,282.111 227.5,279C 219.227,270.701 219.56,263.035 228.5,256C 234.563,255.461 240.229,256.795 245.5,260C 258.002,271.828 266.835,285.995 272,302.5C 276.292,321.719 279.792,341.053 282.5,360.5 Z"/></g>
<g><path style="opacity:1" fill="#323232" d="M 268.5,277.5 C 268.217,278.289 267.717,278.956 267,279.5C 266.472,278.184 266.972,277.517 268.5,277.5 Z"/></g>
<g><path style="opacity:1" fill="#0c0c0c" d="M 409.5,278.5 C 424.746,280.082 439.08,284.582 452.5,292C 439.342,293.088 426.342,292.088 413.5,289C 407.376,287.339 406.042,283.839 409.5,278.5 Z"/></g>
<g><path style="opacity:1" fill="#0d0d0d" d="M 295.5,319.5 C 295.39,310.146 295.723,300.812 296.5,291.5C 297.554,287.065 298.887,282.732 300.5,278.5C 301.5,278.5 302.5,278.5 303.5,278.5C 302.643,292.159 302.476,305.825 303,319.5C 304.772,330.63 306.272,341.797 307.5,353C 307.167,354.5 306.833,356 306.5,357.5C 304.179,354.87 302.346,351.87 301,348.5C 298.303,338.98 296.469,329.313 295.5,319.5 Z"/></g>
<g><path style="opacity:1" fill="#131313" d="M 135.5,302.5 C 136.5,302.5 137.5,302.5 138.5,302.5C 139.154,306.683 137.488,309.516 133.5,311C 120.256,313.304 106.922,313.971 93.5,313C 104.442,310.879 115.442,308.879 126.5,307C 129.84,305.997 132.84,304.497 135.5,302.5 Z"/></g>
<g><path style="opacity:1" fill="#c3c3c3" d="M 296.5,291.5 C 295.723,300.812 295.39,310.146 295.5,319.5C 294.835,316.016 294.501,312.349 294.5,308.5C 294.349,302.591 295.016,296.925 296.5,291.5 Z"/></g>
<g><path style="opacity:1" fill="#0e0e0e" d="M 391.5,346.5 C 406.479,350.66 419.645,357.994 431,368.5C 430.981,370.107 430.815,371.774 430.5,373.5C 425.222,373.425 420.888,371.258 417.5,367C 408.833,362 400.167,357 391.5,352C 390.248,350.172 390.248,348.339 391.5,346.5 Z"/></g>
<g><path style="opacity:1" fill="#818181" d="M 282.5,360.5 C 283.622,362.288 283.789,364.288 283,366.5C 282.209,365.255 281.709,363.922 281.5,362.5C 282.338,362.158 282.672,361.492 282.5,360.5 Z"/></g>
<g><path style="opacity:1" fill="#232323" d="M 253.5,378.5 C 255.288,378.215 256.955,378.548 258.5,379.5C 258.333,379.833 258.167,380.167 258,380.5C 256.378,379.901 254.878,379.234 253.5,378.5 Z"/></g>
<g><path style="opacity:1" fill="#f4f4f4" d="M 292.5,389.5 C 302.522,389.168 312.522,389.501 322.5,390.5C 306.242,404.82 287.242,411.32 265.5,410C 256.904,407.677 256.238,403.677 263.5,398C 273.126,394.681 282.792,391.848 292.5,389.5 Z"/></g>
<g><path style="opacity:1" fill="#151515" d="M 222.5,398.5 C 224.948,398.085 226.281,399.085 226.5,401.5C 225.535,415.137 225.202,428.803 225.5,442.5C 223.549,442.773 222.049,442.107 221,440.5C 218.643,426.366 219.143,412.366 222.5,398.5 Z"/></g>
<g><path style="opacity:1" fill="#151515" d="M 173.5,374.5 C 175.948,374.01 177.615,374.843 178.5,377C 172.851,382.116 168.017,387.949 164,394.5C 157.165,401.993 149.332,408.159 140.5,413C 139.5,413.667 138.5,413.667 137.5,413C 145.473,406.75 152.973,399.917 160,392.5C 164.266,386.291 168.766,380.291 173.5,374.5 Z"/></g>
<g><path style="opacity:1" fill="#f6f6f6" d="M 311.5,421.5 C 320.975,420.989 330.309,421.822 339.5,424C 344.833,426.333 344.833,428.667 339.5,431C 323.932,439.595 307.265,443.262 289.5,442C 279.701,438.955 279.034,434.621 287.5,429C 295.228,425.241 303.228,422.741 311.5,421.5 Z"/></g>
<g><path style="opacity:1" fill="#f4f4f4" d="M 305.5,468.5 C 313.228,468.189 320.895,468.689 328.5,470C 333.381,471.107 337.714,473.274 341.5,476.5C 334.801,482.626 326.801,485.626 317.5,485.5C 310.833,485.334 304.5,483.834 298.5,481C 296.016,478.716 295.849,476.216 298,473.5C 300.426,471.548 302.926,469.881 305.5,468.5 Z"/></g>
</svg>
